<svg width="41" height="33" viewBox="0 0 41 33" fill="none" xmlns="http://www.w3.org/2000/svg">
<path fill-rule="evenodd" clip-rule="evenodd" d="M27.206 7.04499C27.206 8.03699 26.638 8.89599 25.811 9.31699C27.115 12.81 28.481 14.527 29.682 14.661C31.032 14.813 32.268 14.191 33.478 12.657C33.611 12.4838 33.7877 12.3492 33.99 12.267C33.6669 11.7777 33.5228 11.1918 33.5818 10.6085C33.6409 10.0251 33.8995 9.48005 34.3141 9.06541C34.7286 8.65076 35.2736 8.39197 35.857 8.33279C36.4403 8.2736 37.0262 8.41765 37.5156 8.74059C38.005 9.06352 38.3678 9.54554 38.5429 10.1051C38.7179 10.6647 38.6943 11.2676 38.4761 11.8118C38.2579 12.3561 37.8585 12.8083 37.3454 13.092C36.8323 13.3757 36.2369 13.4736 35.66 13.369C35.662 13.481 35.65 13.599 35.62 13.722L33.639 21.703C33.4439 22.4995 32.9878 23.2077 32.3432 23.7146C31.6987 24.2216 30.903 24.4981 30.083 24.5H19.237C18.417 24.4981 17.6213 24.2216 16.9767 23.7146C16.3322 23.2077 15.876 22.4995 15.681 21.703L13.701 13.722C13.6719 13.6066 13.6585 13.4879 13.661 13.369C13.0841 13.4736 12.4887 13.3757 11.9756 13.092C11.4625 12.8083 11.0631 12.3561 10.8449 11.8118C10.6267 11.2676 10.6031 10.6647 10.7781 10.1051C10.9531 9.54554 11.316 9.06352 11.8054 8.74059C12.2948 8.41765 12.8807 8.2736 13.464 8.33279C14.0473 8.39197 14.5923 8.65076 15.0069 9.06541C15.4215 9.48005 15.6801 10.0251 15.7392 10.6085C15.7982 11.1918 15.654 11.7777 15.331 12.267C15.524 12.343 15.707 12.477 15.858 12.677C17.01 14.202 18.233 14.819 19.638 14.661C20.897 14.521 22.256 12.809 23.51 9.31699C23.1064 9.11234 22.7647 8.80378 22.52 8.42311C22.2754 8.04244 22.1366 7.60342 22.1181 7.15129C22.0996 6.69916 22.202 6.25027 22.4147 5.85087C22.6274 5.45146 22.9427 5.11599 23.3282 4.87902C23.7137 4.64205 24.1554 4.51214 24.6078 4.50269C25.0602 4.49324 25.507 4.60458 25.902 4.82524C26.2971 5.04591 26.6262 5.36791 26.8554 5.75808C27.0846 6.14825 27.2056 6.59248 27.206 7.04499ZM15.66 27.75C15.66 27.06 16.22 26.5 16.91 26.5H32.41C32.7415 26.5 33.0595 26.6317 33.2939 26.8661C33.5283 27.1005 33.66 27.4185 33.66 27.75C33.66 28.0815 33.5283 28.3995 33.2939 28.6339C33.0595 28.8683 32.7415 29 32.41 29H16.91C16.22 29 15.66 28.44 15.66 27.75Z" fill="#FBBE28"/>
</svg>
