<svg width="40" height="39" viewBox="0 0 40 39" fill="none" xmlns="http://www.w3.org/2000/svg">
<path d="M22.65 23.84C21.1664 25.0306 19.2858 25.613 17.3889 25.4692C15.4921 25.3255 13.7207 24.4663 12.4335 23.0656C11.1463 21.6649 10.4395 19.8274 10.4561 17.9252C10.4727 16.023 11.2115 14.1981 12.523 12.8202C13.8344 11.4422 15.6205 10.614 17.5196 10.5034C19.4187 10.3928 21.2889 11.0079 22.7515 12.2243C24.214 13.4406 25.1598 15.1673 25.3972 17.0548C25.6346 18.9422 25.1459 20.8493 24.03 22.39L28.23 26.59C28.3226 26.6832 28.3959 26.7938 28.4458 26.9154C28.4956 27.0369 28.521 27.1671 28.5206 27.2985C28.5201 27.4299 28.4938 27.5599 28.4431 27.6812C28.3923 27.8024 28.3183 27.9124 28.225 28.005C28.1318 28.0976 28.0212 28.1709 27.8997 28.2207C27.7781 28.2706 27.6479 28.296 27.5165 28.2956C27.3851 28.2951 27.2551 28.2688 27.1339 28.218C27.0126 28.1673 26.9026 28.0932 26.81 28L22.65 23.84ZM17.95 24C19.5413 24 21.0674 23.3679 22.1927 22.2426C23.3179 21.1174 23.95 19.5913 23.95 18C23.95 16.4087 23.3179 14.8826 22.1927 13.7574C21.0674 12.6321 19.5413 12 17.95 12C16.3587 12 14.8326 12.6321 13.7074 13.7574C12.5822 14.8826 11.95 16.4087 11.95 18C11.95 19.5913 12.5822 21.1174 13.7074 22.2426C14.8326 23.3679 16.3587 24 17.95 24Z" fill="#0D1216"/>
</svg>
