<svg width="41" height="33" viewBox="0 0 41 33" fill="none" xmlns="http://www.w3.org/2000/svg">
<path fill-rule="evenodd" clip-rule="evenodd" d="M26.876 7.04499C26.876 8.03699 26.308 8.89599 25.481 9.31699C26.785 12.81 28.151 14.527 29.352 14.661C30.702 14.813 31.938 14.191 33.148 12.657C33.281 12.4838 33.4577 12.3492 33.66 12.267C33.3369 11.7777 33.1928 11.1918 33.2518 10.6085C33.3109 10.0251 33.5695 9.48005 33.9841 9.06541C34.3986 8.65076 34.9436 8.39197 35.527 8.33279C36.1103 8.2736 36.6962 8.41765 37.1856 8.74059C37.675 9.06352 38.0378 9.54554 38.2128 10.1051C38.3879 10.6647 38.3643 11.2676 38.1461 11.8118C37.9279 12.3561 37.5285 12.8083 37.0154 13.092C36.5023 13.3757 35.9069 13.4736 35.33 13.369C35.332 13.481 35.32 13.599 35.29 13.722L33.309 21.703C33.1139 22.4995 32.6578 23.2077 32.0132 23.7146C31.3687 24.2216 30.573 24.4981 29.753 24.5H18.907C18.087 24.4981 17.2913 24.2216 16.6467 23.7146C16.0022 23.2077 15.546 22.4995 15.351 21.703L13.371 13.722C13.3419 13.6066 13.3285 13.4879 13.331 13.369C12.7541 13.4736 12.1587 13.3757 11.6456 13.092C11.1325 12.8083 10.7331 12.3561 10.5149 11.8118C10.2967 11.2676 10.2731 10.6647 10.4481 10.1051C10.6231 9.54554 10.986 9.06352 11.4754 8.74059C11.9648 8.41765 12.5507 8.2736 13.134 8.33279C13.7173 8.39197 14.2623 8.65076 14.6769 9.06541C15.0915 9.48005 15.3501 10.0251 15.4092 10.6085C15.4682 11.1918 15.324 11.7777 15.001 12.267C15.194 12.343 15.377 12.477 15.528 12.677C16.68 14.202 17.903 14.819 19.308 14.661C20.567 14.521 21.926 12.809 23.18 9.31699C22.7764 9.11234 22.4347 8.80378 22.19 8.42311C21.9454 8.04244 21.8066 7.60342 21.7881 7.15129C21.7696 6.69916 21.872 6.25027 22.0847 5.85087C22.2974 5.45146 22.6127 5.11599 22.9982 4.87902C23.3837 4.64205 23.8254 4.51214 24.2778 4.50269C24.7302 4.49324 25.177 4.60458 25.572 4.82524C25.9671 5.04591 26.2962 5.36791 26.5254 5.75808C26.7546 6.14825 26.8756 6.59248 26.876 7.04499ZM15.33 27.75C15.33 27.06 15.89 26.5 16.58 26.5H32.08C32.4115 26.5 32.7295 26.6317 32.9639 26.8661C33.1983 27.1005 33.33 27.4185 33.33 27.75C33.33 28.0815 33.1983 28.3995 32.9639 28.6339C32.7295 28.8683 32.4115 29 32.08 29H16.58C15.89 29 15.33 28.44 15.33 27.75Z" fill="#FBBE28"/>
</svg>
