<svg width="41" height="41" viewBox="0 0 41 41" fill="none" xmlns="http://www.w3.org/2000/svg">
<path d="M20.63 30.5C17.9778 30.5 15.4343 29.4464 13.5589 27.5711C11.6836 25.6957 10.63 23.1522 10.63 20.5C10.63 17.8478 11.6836 15.3043 13.5589 13.4289C15.4343 11.5536 17.9778 10.5 20.63 10.5C23.2822 10.5 25.8257 11.5536 27.7011 13.4289C29.5764 15.3043 30.63 17.8478 30.63 20.5C30.63 23.1522 29.5764 25.6957 27.7011 27.5711C25.8257 29.4464 23.2822 30.5 20.63 30.5ZM20.63 29C22.8843 29 25.0464 28.1045 26.6404 26.5104C28.2345 24.9163 29.13 22.7543 29.13 20.5C29.13 18.2457 28.2345 16.0837 26.6404 14.4896C25.0464 12.8955 22.8843 12 20.63 12C18.3757 12 16.2137 12.8955 14.6196 14.4896C13.0255 16.0837 12.13 18.2457 12.13 20.5C12.13 22.7543 13.0255 24.9163 14.6196 26.5104C16.2137 28.1045 18.3757 29 20.63 29ZM17.38 18.35C17.43 16.73 18.55 15.55 20.58 15.55C22.45 15.55 23.7 16.63 23.7 18.15C23.7 19.19 23.18 19.92 22.25 20.48C21.35 21 21.1 21.35 21.1 22.03V22.42H19.53L19.52 21.95C19.46 20.93 19.85 20.31 20.8 19.75C21.64 19.25 21.93 18.88 21.93 18.21C21.93 17.5 21.36 16.98 20.5 16.98C19.61 16.98 19.05 17.52 19 18.35H17.37H17.38ZM20.38 25.68C19.7 25.68 19.25 25.25 19.25 24.59C19.25 23.93 19.7 23.49 20.38 23.49C21.08 23.49 21.52 23.93 21.52 24.59C21.52 25.25 21.08 25.68 20.38 25.68Z" fill="#0D1216"/>
</svg>
