<svg width="19" height="23" viewBox="0 0 19 23" fill="none" xmlns="http://www.w3.org/2000/svg">
<path d="M14.05 6.97L10.52 10.51C10.42 10.61 10.26 10.61 10.16 10.51L6.63996 6.97C6.57129 6.89631 6.48849 6.83721 6.39649 6.79622C6.30449 6.75523 6.20518 6.73319 6.10448 6.73141C6.00378 6.72963 5.90375 6.74816 5.81036 6.78588C5.71697 6.8236 5.63214 6.87974 5.56092 6.95096C5.4897 7.02218 5.43355 7.10701 5.39583 7.2004C5.35811 7.29379 5.33959 7.39382 5.34136 7.49452C5.34314 7.59523 5.36518 7.69454 5.40618 7.78654C5.44717 7.87854 5.50627 7.96134 5.57996 8.03L9.10996 11.57C9.79996 12.25 10.91 12.25 11.59 11.57L15.12 8.03C15.2524 7.88783 15.3246 7.69978 15.3211 7.50548C15.3177 7.31118 15.239 7.12579 15.1016 6.98838C14.9642 6.85097 14.7788 6.77225 14.5845 6.76883C14.3902 6.7654 14.2021 6.83752 14.06 6.97H14.05Z" fill="#0D1216"/>
</svg>
