<svg width="48" height="45" viewBox="0 0 48 45" fill="none" xmlns="http://www.w3.org/2000/svg">
<path fill-rule="evenodd" clip-rule="evenodd" d="M14.078 6.14307H5.33399C4.62666 6.14307 3.9483 6.42405 3.44814 6.92421C2.94798 7.42437 2.66699 8.10273 2.66699 8.81007V11.4771C2.66699 11.6801 2.68999 11.8791 2.73299 12.0691C2.68906 12.2491 2.6669 12.4338 2.66699 12.6191V25.0011C2.66699 26.3681 3.86099 27.4771 5.33399 27.4771H26.667C28.14 27.4771 29.334 26.3681 29.334 25.0001V12.6201C29.334 11.2521 28.14 10.1431 26.667 10.1431H17.334L16.608 7.96707C16.4311 7.43599 16.0915 6.97404 15.6374 6.64668C15.1833 6.31931 14.6378 6.14312 14.078 6.14307ZM5.33399 10.1431H15.226L14.71 8.60007C14.6657 8.46724 14.5807 8.35171 14.4671 8.26987C14.3535 8.18803 14.217 8.14401 14.077 8.14407H5.33399C5.15727 8.14407 4.98776 8.2142 4.86271 8.33907C4.73765 8.46394 4.66726 8.63334 4.66699 8.81007V10.2211C4.87999 10.1711 5.10299 10.1431 5.33399 10.1431ZM4.66699 12.6201C4.66699 12.3911 4.93399 12.1431 5.33399 12.1431H26.667C27.067 12.1431 27.334 12.3911 27.334 12.6201V25.0001C27.334 25.2291 27.067 25.4771 26.667 25.4771H5.33399C4.93399 25.4771 4.66699 25.2291 4.66699 25.0001V12.6201Z" fill="#0D1216"/>
</svg>
