<svg width="19" height="23" viewBox="0 0 19 23" fill="none" xmlns="http://www.w3.org/2000/svg">
<path d="M14.15 6.97L10.62 10.51C10.52 10.61 10.36 10.61 10.26 10.51L6.74001 6.97C6.67135 6.89631 6.58855 6.83721 6.49655 6.79622C6.40455 6.75523 6.30523 6.73319 6.20453 6.73141C6.10383 6.72963 6.0038 6.74816 5.91041 6.78588C5.81702 6.8236 5.73219 6.87974 5.66097 6.95096C5.58975 7.02218 5.53361 7.10701 5.49589 7.2004C5.45816 7.29379 5.43964 7.39382 5.44142 7.49452C5.44319 7.59523 5.46523 7.69454 5.50623 7.78654C5.54722 7.87854 5.60632 7.96134 5.68001 8.03L9.21001 11.57C9.90001 12.25 11.01 12.25 11.69 11.57L15.22 8.03C15.3525 7.88783 15.4246 7.69978 15.4212 7.50548C15.4178 7.31118 15.339 7.12579 15.2016 6.98838C15.0642 6.85097 14.8788 6.77225 14.6845 6.76883C14.4902 6.7654 14.3022 6.83752 14.16 6.97H14.15Z" fill="#0D1216"/>
</svg>
