<svg width="17" height="17" viewBox="0 0 17 17" fill="none" xmlns="http://www.w3.org/2000/svg">
<path d="M12.46 6.72015L8.92999 10.2602C8.82999 10.3602 8.66999 10.3602 8.56999 10.2602L5.04999 6.72015C4.98133 6.64647 4.89853 6.58736 4.80653 6.54637C4.71453 6.50538 4.61522 6.48334 4.51451 6.48156C4.41381 6.47979 4.31378 6.49831 4.22039 6.53603C4.127 6.57375 4.04217 6.6299 3.97095 6.70112C3.89973 6.77233 3.84359 6.85717 3.80587 6.95056C3.76815 7.04394 3.74962 7.14397 3.7514 7.24468C3.75318 7.34538 3.77522 7.44469 3.81621 7.53669C3.8572 7.62869 3.9163 7.71149 3.98999 7.78015L7.51999 11.3202C8.20999 12.0002 9.31999 12.0002 9.99999 11.3202L13.53 7.78015C13.6625 7.63798 13.7346 7.44993 13.7312 7.25563C13.7277 7.06133 13.649 6.87594 13.5116 6.73853C13.3742 6.60112 13.1888 6.52241 12.9945 6.51898C12.8002 6.51555 12.6122 6.58767 12.47 6.72015H12.46Z" fill="#0D1216"/>
</svg>
