<svg width="48" height="45" viewBox="0 0 48 45" fill="none" xmlns="http://www.w3.org/2000/svg">
<path fill-rule="evenodd" clip-rule="evenodd" d="M28.996 15.5061C28.999 15.6061 29 15.7081 29 15.8101C29 21.4901 24.419 26.0981 18.75 26.1431C18.728 26.1531 18.692 26.1691 18.64 26.1981C18.492 26.2781 18.295 26.4061 18.055 26.5821C17.578 26.9341 17.012 27.4151 16.457 27.9121C15.906 28.4061 15.383 28.8991 14.995 29.2691L14.801 29.4551C14.691 29.5581 14.598 29.6481 14.525 29.7171C14.4756 29.764 14.4256 29.8104 14.375 29.8561C14.3459 29.8821 14.3159 29.9071 14.285 29.9311C14.273 29.9411 14.21 29.9891 14.126 30.0321H14.125C13.936 30.1289 13.7213 30.1634 13.5114 30.1307C13.3016 30.098 13.1076 29.9998 12.957 29.8501C12.7698 29.6624 12.6648 29.4081 12.665 29.1431V26.1231C7.269 25.7771 3 21.2921 3 15.8101C3 10.1031 7.626 5.47705 13.333 5.47705H18.667C18.931 5.47705 19.192 5.48705 19.451 5.50705C19.1366 6.12858 18.913 6.792 18.787 7.47705H13.333C12.2387 7.47705 11.1551 7.69259 10.1441 8.11136C9.13309 8.53014 8.21447 9.14394 7.44068 9.91773C6.66689 10.6915 6.05308 11.6101 5.63431 12.6212C5.21554 13.6322 5 14.7157 5 15.8101C5 16.9044 5.21554 17.9879 5.63431 18.999C6.05308 20.01 6.66689 20.9286 7.44068 21.7024C8.21447 22.4762 9.13309 23.09 10.1441 23.5087C11.1551 23.9275 12.2387 24.1431 13.333 24.1431H14.665V26.8381C14.813 26.7011 14.967 26.5621 15.122 26.4221C15.682 25.9125 16.265 25.4286 16.869 24.9721C17.145 24.7691 17.425 24.5801 17.689 24.4381C17.909 24.3181 18.273 24.1431 18.667 24.1431C20.831 24.1431 22.9102 23.3013 24.4647 21.7958C26.0191 20.2902 26.9269 18.239 26.996 16.0761C27.6865 15.9827 28.36 15.7907 28.996 15.5061Z" fill="#0D1216"/>
<path fill-rule="evenodd" clip-rule="evenodd" d="M25 12.4771C25 12.7423 25.1054 12.9966 25.2929 13.1842C25.4804 13.3717 25.7348 13.4771 26 13.4771C26.2652 13.4771 26.5196 13.3717 26.7071 13.1842C26.8947 12.9966 27 12.7423 27 12.4771V9.81007H29.666C29.9312 9.81007 30.1856 9.70471 30.3731 9.51717C30.5607 9.32964 30.666 9.07528 30.666 8.81007C30.666 8.54485 30.5607 8.2905 30.3731 8.10296C30.1856 7.91542 29.9312 7.81007 29.666 7.81007H27V5.14307C27 4.87785 26.8947 4.6235 26.7071 4.43596C26.5196 4.24842 26.2652 4.14307 26 4.14307C25.7348 4.14307 25.4804 4.24842 25.2929 4.43596C25.1054 4.6235 25 4.87785 25 5.14307V7.81007H22.333C22.0678 7.81007 21.8134 7.91542 21.6259 8.10296C21.4384 8.2905 21.333 8.54485 21.333 8.81007C21.333 9.07528 21.4384 9.32964 21.6259 9.51717C21.8134 9.70471 22.0678 9.81007 22.333 9.81007H25V12.4771Z" fill="#0D1216"/>
</svg>
