<svg width="48" height="45" viewBox="0 0 48 45" fill="none" xmlns="http://www.w3.org/2000/svg">
<path d="M7.7 17.8103C8.2 17.8103 8.7 18.2103 8.7 18.8103C8.7 19.4103 8.2 19.8103 7.7 19.8103H5.3V22.1103C5.3 22.7103 4.9 23.1103 4.3 23.1103C4.03478 23.1103 3.78043 23.0049 3.59289 22.8174C3.40536 22.6298 3.3 22.3755 3.3 22.1103V19.8103H1C0.4 19.8103 0 19.4103 0 18.8103C0 18.2103 0.4 17.8103 1 17.8103H3.3V15.5103C3.3 14.9103 3.8 14.5103 4.3 14.5103C4.9 14.5103 5.3 14.9103 5.3 15.5103V17.8103H7.7ZM25.8 22.8103H30C30 22.4103 29.7 22.0103 29.4 21.8103L26 20.3103C25.2 20.0103 24.8 19.3103 24.8 18.5103V17.8103C24.8 17.1103 25.1 16.5103 25.6 16.1103C26.9 15.3103 27.9 12.8103 27.9 10.5103C27.9 7.91025 26.8 6.81025 24.6 6.81025H24.1C23.9 6.21025 23.6 5.61025 23.1 5.01025C23.4 4.91025 24.2 4.81025 24.6 4.81025C27.8 4.81025 29.9 6.71025 29.9 10.5103C29.9 12.7103 29 14.0103 27.8 16.8103L26.8 17.8103V18.5103L30.2 20.0103C31.3 20.5103 32 21.6103 32 22.8103C32 23.3407 31.7893 23.8494 31.4142 24.2245C31.0391 24.5995 30.5304 24.8103 30 24.8103H26.9C26.7 24.1103 26.4 23.4103 25.8 22.8103ZM19.4 21.1103L23 22.7103C24.4 23.3103 25.3 24.7103 25.3 26.3103V26.8103C25.3 27.3407 25.0893 27.8494 24.7142 28.2245C24.3391 28.5995 23.8304 28.8103 23.3 28.8103H8.7C8.16957 28.8103 7.66086 28.5995 7.28579 28.2245C6.91071 27.8494 6.7 27.3407 6.7 26.8103V26.3103C6.7 24.7103 7.6 23.3103 9 22.7103L12.7 21.1103V19.5103C10.6 17.6103 9.3 14.1103 9.3 10.8103C9.3 6.01025 11.9 3.51025 16 3.51025C20 3.51025 22.7 5.81025 22.7 10.6103C22.7 13.9103 21.4 17.4103 19.4 19.4103V21.1103ZM17.4 19.4103C17.4 18.8103 17.6 18.3103 18 17.9103C19.6 16.4103 20.7 13.5103 20.7 10.6103C20.7 7.11025 19.1 5.51025 16 5.51025C12.9 5.51025 11.3 7.21025 11.3 10.8103C11.3 13.7103 12.4 16.6103 14 18.0103C14.4 18.4103 14.7 18.9103 14.7 19.5103V21.1103C14.7 21.9103 14.2 22.7103 13.5 23.0103L9.8 24.6103C9.1 24.9103 8.7 25.5103 8.7 26.3103V26.8103H23.3V26.3103C23.3 25.5103 22.9 24.8103 22.2 24.5103L18.6 22.9103C17.8 22.6103 17.4 21.9103 17.4 21.1103V19.4103Z" fill="#0D1216"/>
</svg>
