<svg width="19" height="23" viewBox="0 0 19 23" fill="none" xmlns="http://www.w3.org/2000/svg">
<path d="M14.01 6.97L10.48 10.51C10.38 10.61 10.22 10.61 10.12 10.51L6.59998 6.97C6.53132 6.89631 6.44852 6.83721 6.35652 6.79622C6.26452 6.75523 6.1652 6.73319 6.0645 6.73141C5.9638 6.72963 5.86377 6.74816 5.77038 6.78588C5.67699 6.8236 5.59216 6.87974 5.52094 6.95096C5.44972 7.02218 5.39358 7.10701 5.35586 7.2004C5.31813 7.29379 5.29961 7.39382 5.30139 7.49452C5.30316 7.59523 5.32521 7.69454 5.3662 7.78654C5.40719 7.87854 5.46629 7.96134 5.53998 8.03L9.06998 11.57C9.75998 12.25 10.87 12.25 11.55 11.57L15.08 8.03C15.2125 7.88783 15.2846 7.69978 15.2812 7.50548C15.2777 7.31118 15.199 7.12579 15.0616 6.98838C14.9242 6.85097 14.7388 6.77225 14.5445 6.76883C14.3502 6.7654 14.1622 6.83752 14.02 6.97H14.01Z" fill="#0D1216"/>
</svg>
