<svg width="19" height="23" viewBox="0 0 19 23" fill="none" xmlns="http://www.w3.org/2000/svg">
<path d="M14.505 6.97L10.975 10.51C10.875 10.61 10.715 10.61 10.615 10.51L7.09497 6.97C7.02631 6.89631 6.94351 6.83721 6.85151 6.79622C6.75951 6.75523 6.6602 6.73319 6.5595 6.73141C6.45879 6.72963 6.35876 6.74816 6.26538 6.78588C6.17199 6.8236 6.08715 6.87974 6.01593 6.95096C5.94472 7.02218 5.88857 7.10701 5.85085 7.2004C5.81313 7.29379 5.7946 7.39382 5.79638 7.49452C5.79816 7.59523 5.8202 7.69454 5.86119 7.78654C5.90218 7.87854 5.96129 7.96134 6.03497 8.03L9.56497 11.57C10.255 12.25 11.365 12.25 12.045 11.57L15.575 8.03C15.7075 7.88783 15.7796 7.69978 15.7761 7.50548C15.7727 7.31118 15.694 7.12579 15.5566 6.98838C15.4192 6.85097 15.2338 6.77225 15.0395 6.76883C14.8452 6.7654 14.6571 6.83752 14.515 6.97H14.505Z" fill="#0D1216"/>
</svg>
