<svg width="48" height="45" viewBox="0 0 48 45" fill="none" xmlns="http://www.w3.org/2000/svg">
<path fill-rule="evenodd" clip-rule="evenodd" d="M10 6.31006H22C22.1326 6.31006 22.2598 6.36274 22.3536 6.45651C22.4473 6.55027 22.5 6.67745 22.5 6.81006V8.81006H9.5V6.81006C9.5 6.67745 9.55268 6.55027 9.64645 6.45651C9.74021 6.36274 9.86739 6.31006 10 6.31006ZM8 10.8101V6.81006C8 6.27963 8.21071 5.77092 8.58579 5.39584C8.96086 5.02077 9.46957 4.81006 10 4.81006H22C22.5304 4.81006 23.0391 5.02077 23.4142 5.39584C23.7893 5.77092 24 6.27963 24 6.81006V26.8101C24 27.3405 23.7893 27.8492 23.4142 28.2243C23.0391 28.5993 22.5304 28.8101 22 28.8101H10C9.46957 28.8101 8.96086 28.5993 8.58579 28.2243C8.21071 27.8492 8 27.3405 8 26.8101V10.8101ZM22.5 10.8101V20.8101H9.5V10.8101H22.5ZM9.5 26.8101V22.8101H22.5V26.8101C22.5 26.9427 22.4473 27.0698 22.3536 27.1636C22.2598 27.2574 22.1326 27.3101 22 27.3101H10C9.86739 27.3101 9.74021 27.2574 9.64645 27.1636C9.55268 27.0698 9.5 26.9427 9.5 26.8101ZM14.667 24.1431C14.4901 24.1431 14.3204 24.2133 14.1954 24.3384C14.0703 24.4635 14 24.6332 14 24.8101C14 24.987 14.0703 25.1566 14.1954 25.2817C14.3204 25.4068 14.4901 25.4771 14.667 25.4771H17.333C17.5099 25.4771 17.6796 25.4068 17.8046 25.2817C17.9297 25.1566 18 24.987 18 24.8101C18 24.6332 17.9297 24.4635 17.8046 24.3384C17.6796 24.2133 17.5099 24.1431 17.333 24.1431H14.667Z" fill="#0D1216"/>
<path fill-rule="evenodd" clip-rule="evenodd" d="M11 6.81006H21C21.2652 6.81006 21.5196 6.91542 21.7071 7.10295C21.8946 7.29049 22 7.54484 22 7.81006V8.81006H10V7.81006C10 7.54484 10.1054 7.29049 10.2929 7.10295C10.4804 6.91542 10.7348 6.81006 11 6.81006ZM8 10.8101V7.81006C8 7.01441 8.31607 6.25135 8.87868 5.68874C9.44129 5.12613 10.2044 4.81006 11 4.81006H21C21.7956 4.81006 22.5587 5.12613 23.1213 5.68874C23.6839 6.25135 24 7.01441 24 7.81006V25.8101C24 26.6057 23.6839 27.3688 23.1213 27.9314C22.5587 28.494 21.7956 28.8101 21 28.8101H11C10.2044 28.8101 9.44129 28.494 8.87868 27.9314C8.31607 27.3688 8 26.6057 8 25.8101V10.8101ZM22 10.8101V20.8101H10V10.8101H22ZM10 22.8101H22V25.8101C22 26.0753 21.8946 26.3296 21.7071 26.5172C21.5196 26.7047 21.2652 26.8101 21 26.8101H11C10.7348 26.8101 10.4804 26.7047 10.2929 26.5172C10.1054 26.3296 10 26.0753 10 25.8101V22.8101ZM15 23.8101C14.7348 23.8101 14.4804 23.9154 14.2929 24.103C14.1054 24.2905 14 24.5448 14 24.8101C14 25.0753 14.1054 25.3296 14.2929 25.5172C14.4804 25.7047 14.7348 25.8101 15 25.8101H17C17.2652 25.8101 17.5196 25.7047 17.7071 25.5172C17.8946 25.3296 18 25.0753 18 24.8101C18 24.5448 17.8946 24.2905 17.7071 24.103C17.5196 23.9154 17.2652 23.8101 17 23.8101H15Z" fill="#0D1216"/>
</svg>
