<svg width="24" height="25" viewBox="0 0 24 25" fill="none" xmlns="http://www.w3.org/2000/svg">
<path d="M3.8 14.4998H7.61C7.45549 13.0038 7.45549 11.4958 7.61 9.99982H3.81C3.40573 11.4726 3.40573 13.0271 3.81 14.4998H3.8ZM4.37 15.9998C5.37 18.0398 7.17 19.6098 9.35 20.3298C8.67 19.2298 8.15 17.7298 7.83 15.9998H4.37ZM20.2 14.4998C20.6043 13.0271 20.6043 11.4726 20.2 9.99982H16.39C16.5445 11.4958 16.5445 13.0038 16.39 14.4998H20.19H20.2ZM19.63 15.9998H16.17C15.9287 17.523 15.4138 18.99 14.65 20.3298C15.7261 19.975 16.7207 19.4094 17.5757 18.6659C18.4307 17.9225 19.1291 17.0161 19.63 15.9998ZM9.13 14.4998H14.87C15.0383 13.0045 15.0383 11.4951 14.87 9.99982H9.13C8.96173 11.4951 8.96173 13.0045 9.13 14.4998ZM9.36 15.9998C9.92 18.8398 11.05 20.7498 12 20.7498C12.95 20.7498 14.08 18.8498 14.64 15.9998H9.36ZM4.37 8.49982H7.83C8.14 6.75982 8.67 5.25982 9.35 4.16982C8.27394 4.52464 7.27935 5.09028 6.42431 5.83372C5.56927 6.57716 4.87091 7.4835 4.37 8.49982ZM19.63 8.49982C19.1291 7.4835 18.4307 6.57716 17.5757 5.83372C16.7207 5.09028 15.7261 4.52464 14.65 4.16982C15.33 5.26982 15.85 6.76982 16.17 8.49982H19.63ZM21.27 8.49982H21.31V8.59982C22.28 11.0632 22.2336 13.8108 21.1808 16.24C20.1281 18.6692 18.155 20.5818 15.6943 21.5584C13.2335 22.535 10.4858 22.496 8.05381 21.4498C5.62178 20.4036 3.70386 18.4357 2.7206 15.9776C1.73735 13.5194 1.769 10.7717 2.80863 8.33686C3.84825 5.90202 5.81099 3.97881 8.26648 2.98894C10.722 1.99907 13.4698 2.02332 15.9074 3.05639C18.345 4.08945 20.2735 6.04701 21.27 8.49982ZM9.36 8.49982H14.64C14.08 5.65982 12.95 3.74982 12 3.74982C11.05 3.74982 9.92 5.64982 9.36 8.49982Z" fill="#0D1216"/>
</svg>
