<svg width="19" height="23" viewBox="0 0 19 23" fill="none" xmlns="http://www.w3.org/2000/svg">
<path d="M14.15 6.97L10.62 10.51C10.52 10.61 10.36 10.61 10.26 10.51L6.73999 6.97C6.67133 6.89631 6.58853 6.83721 6.49653 6.79622C6.40453 6.75523 6.30522 6.73319 6.20452 6.73141C6.10381 6.72963 6.00378 6.74816 5.9104 6.78588C5.81701 6.8236 5.73217 6.87974 5.66095 6.95096C5.58974 7.02218 5.53359 7.10701 5.49587 7.2004C5.45815 7.29379 5.43962 7.39382 5.4414 7.49452C5.44318 7.59523 5.46522 7.69454 5.50621 7.78654C5.5472 7.87854 5.60631 7.96134 5.67999 8.03L9.20999 11.57C9.89999 12.25 11.01 12.25 11.69 11.57L15.22 8.03C15.3525 7.88783 15.4246 7.69978 15.4212 7.50548C15.4177 7.31118 15.339 7.12579 15.2016 6.98838C15.0642 6.85097 14.8788 6.77225 14.6845 6.76883C14.4902 6.7654 14.3022 6.83752 14.16 6.97H14.15Z" fill="#0D1216"/>
</svg>
